# xmcd
#
# Track frame offsets:
#	150
#	13600
#	27366
#	42883
#	59425
#	71496
#	78986
#	96239
#	111311
#	125907
#	139258
#	156162
#	175633
#	197440
#	218651
#
# Disc length: 3189 seconds
#
# Revision: 0
# Processed by: cddbd v1.5.2PL0 Copyright (c) Steve Scherf et al.
# Submitted via: dBpowerAMP V4.0
#
DISCID=cf0c730f
DTITLE=Eddy Mitchell - Anthologie 3
DYEAR=1996
DGENRE=Rock and Roll
TTITLE0=J'vous dérange
TTITLE1=Les grands moments
TTITLE2=Y'a rien qui remplace un amour
TTITLE3=Pauvre Baby Doll
TTITLE4=Noël blanc
TTITLE5=Love me tender
TTITLE6=Le cimetière des éléphants
TTITLE7=Le blues du blanc
TTITLE8=Nashville ou Belleville
TTITLE9=Vieille canaille
TTITLE10=Le temps qui passe
TTITLE11=Lèche-bottes blues
TTITLE12=Rio Grande
TTITLE13=Un portrait de Norman Rockwell
TTITLE14=Les tuniques bleues et les indiens
EXTD=
EXTT0=
EXTT1=
EXTT2=
EXTT3=
EXTT4=
EXTT5=
EXTT6=
EXTT7=
EXTT8=
EXTT9=
EXTT10=
EXTT11=
EXTT12=
EXTT13=
EXTT14=
PLAYORDER=
